<svg width="673" height="119" viewBox="0 0 673 119" fill="none" xmlns="http://www.w3.org/2000/svg">
<path d="M23.68 118.144C18.304 118.144 13.8666 117.205 10.368 115.328C6.86931 113.451 4.26664 111.019 2.55997 108.032C0.853308 105.045 -2.52724e-05 101.973 -2.52724e-05 98.816C-2.52724e-05 96.256 0.426641 93.952 1.27997 91.904C2.98664 87.8933 6.05864 84.3947 10.496 81.408C14.9333 78.4213 20.352 76.928 26.752 76.928C27.52 76.928 28.288 76.9707 29.056 77.056C29.9093 77.1413 30.6773 77.2693 31.36 77.44C32.2986 77.3547 33.1946 77.056 34.048 76.544C34.9013 75.9467 35.5413 75.4347 35.968 75.008C36.3946 74.496 36.736 73.984 36.992 73.472C37.248 72.8747 37.376 72.3627 37.376 71.936C37.376 71.3387 37.1626 70.912 36.736 70.656C36.48 70.4853 36.352 70.3147 36.352 70.144C36.352 69.5467 36.9066 69.4187 38.016 69.76C39.6373 70.272 40.448 71.296 40.448 72.832C40.448 74.2827 39.68 75.52 38.144 76.544C37.5466 77.056 36.8213 77.44 35.968 77.696C35.2 77.8667 34.3893 77.952 33.536 77.952C36.4373 78.8053 39.0826 80.2987 41.472 82.432L42.112 82.176C43.2213 81.8347 44.4586 82.048 45.824 82.816C47.1893 83.584 48.1706 84.8213 48.768 86.528C49.1946 87.808 49.408 89.1733 49.408 90.624C49.408 92.16 49.152 93.6533 48.64 95.104C48.2133 96.5547 47.488 97.5787 46.464 98.176C45.44 98.7733 44.8 98.816 44.544 98.304C45.1413 97.792 45.44 97.1947 45.44 96.512C45.44 95.8293 45.184 95.104 44.672 94.336C44.2453 93.6533 43.776 93.1413 43.264 92.8C42.752 92.3733 42.1973 91.904 41.6 91.392C41.0026 90.7947 40.448 89.9413 39.936 88.832C39.5093 87.9787 39.296 87.168 39.296 86.4C39.296 85.2907 39.6373 84.3093 40.32 83.456C35.968 79.9573 30.9333 78.464 25.216 78.976C20.608 79.4027 16.7253 80.64 13.568 82.688C10.4106 84.6507 8.02131 87.0827 6.39997 89.984C4.77864 92.8853 3.96797 95.9147 3.96797 99.072C3.96797 103.253 5.33331 106.965 8.06398 110.208L7.80797 109.824C7.21064 108.629 6.91197 107.221 6.91197 105.6C6.91197 104.576 7.03997 103.637 7.29597 102.784C8.40531 99.968 9.98398 98.56 12.032 98.56C13.3973 98.56 14.5066 99.2 15.36 100.48C15.7013 100.907 15.872 101.376 15.872 101.888C15.872 102.656 15.5306 102.784 14.848 102.272C14.2506 101.845 13.4826 101.888 12.544 102.4C11.6053 102.997 10.7946 103.808 10.112 104.832C9.77064 105.259 9.47198 105.899 9.21597 106.752C8.95997 107.605 8.83197 108.501 8.83197 109.44C8.83197 109.952 8.91731 110.549 9.08798 111.232C10.7093 112.853 12.672 114.133 14.976 115.072C17.28 116.011 19.968 116.48 23.04 116.48C27.4773 116.48 31.872 115.371 36.224 113.152C40.576 111.019 44.8 108.16 48.896 104.576C52.992 100.992 56.9173 96.9813 60.672 92.544C64.4266 88.1067 67.968 83.584 71.296 78.976C74.624 74.2827 77.6533 69.8453 80.384 65.664C83.2 61.4827 85.632 57.8987 87.68 54.912C91.9466 48.5973 96.384 42.5387 100.992 36.736C105.6 30.9333 110.507 26.24 115.712 22.656C109.739 20.6933 103.381 18.6027 96.64 16.384C89.984 14.1653 83.2426 12.544 76.416 11.52C74.368 11.0933 72.4053 10.8373 70.528 10.752C70.6133 10.8373 70.528 10.8373 70.272 10.752C69.1626 10.5813 68.1813 10.8373 67.328 11.52C66.4746 12.1173 65.8773 12.672 65.536 13.184C64.9386 14.208 64.64 15.1467 64.64 16C64.64 16.768 64.896 17.28 65.408 17.536C65.8346 17.7067 66.048 17.92 66.048 18.176C66.048 18.5173 65.7493 18.688 65.152 18.688C64.4693 18.688 63.6586 18.432 62.72 17.92C61.8666 17.408 61.44 16.5973 61.44 15.488C61.44 14.3787 61.8666 13.3547 62.72 12.416C63.6586 11.4773 64.8106 10.8373 66.176 10.496C59.264 10.3253 53.2906 11.136 48.256 12.928C43.2213 14.72 39.0826 17.1093 35.84 20.096C32.5973 22.9973 30.1653 26.24 28.544 29.824C28.8853 29.824 29.056 30.0373 29.056 30.464C28.9706 32.256 29.184 33.7067 29.696 34.816C30.208 35.9253 30.8906 36.9493 31.744 37.888C32.256 36.9493 32.9813 36.2667 33.92 35.84C34.8586 35.4133 35.84 35.2 36.864 35.2C37.7173 35.2 38.4426 35.328 39.04 35.584C40.4906 36.096 41.6 36.6933 42.368 37.376C43.2213 37.9733 43.9466 38.6133 44.544 39.296C44.9706 39.808 45.6106 40.2773 46.464 40.704C47.3173 41.1307 48.128 41.344 48.896 41.344C50.0906 41.344 50.9866 40.8747 51.584 39.936C51.84 40.192 51.968 40.576 51.968 41.088C51.968 42.368 51.328 43.4773 50.048 44.416C48.8533 45.3547 47.36 46.08 45.568 46.592C43.8613 47.104 42.1546 47.36 40.448 47.36C37.376 47.36 34.944 46.464 33.152 44.672C31.4453 42.7947 30.7626 41.0453 31.104 39.424L31.232 39.168C30.1226 38.2293 29.312 37.248 28.8 36.224C28.288 35.1147 27.8186 33.92 27.392 32.64C26.4533 35.6267 25.984 38.4427 25.984 41.088C25.984 44.5867 26.7093 47.9147 28.16 51.072C29.6106 54.144 31.744 56.6187 34.56 58.496C37.376 60.3733 40.7893 61.312 44.8 61.312C48.8106 61.312 52.6933 60.288 56.448 58.24C60.2026 56.1067 63.232 53.248 65.536 49.664C67.84 45.9947 68.8213 41.856 68.48 37.248C68.3946 35.7973 67.8826 34.304 66.944 32.768C66.0906 31.232 64.8106 30.464 63.104 30.464C62.6773 30.464 62.208 30.5493 61.696 30.72C61.184 30.8907 60.8426 31.1893 60.672 31.616C60.5866 31.872 60.416 32 60.16 32C59.7333 32 59.52 31.616 59.52 30.848C59.52 29.6533 59.9466 28.672 60.8 27.904C61.7386 27.136 62.7626 26.752 63.872 26.752C65.0666 26.752 66.2186 27.3493 67.328 28.544C68.5226 29.7387 69.1626 31.8293 69.248 34.816C69.504 34.048 69.8453 33.28 70.272 32.512C71.2106 31.232 72.32 30.592 73.6 30.592C74.9653 30.592 75.8613 31.232 76.288 32.512C76.4586 33.024 76.4586 33.408 76.288 33.664C76.1173 33.92 75.8613 33.8773 75.52 33.536C75.264 33.28 74.9653 33.152 74.624 33.152C73.9413 33.152 73.0453 33.536 71.936 34.304C71.68 34.56 71.3813 34.944 71.04 35.456C70.6986 35.968 70.4426 36.5653 70.272 37.248C70.4426 42.4533 69.4613 46.9333 67.328 50.688C65.1946 54.4427 62.4213 57.3867 59.008 59.52C59.4346 59.4347 59.8186 59.392 60.16 59.392C60.5013 59.3067 60.8426 59.264 61.184 59.264C62.8906 59.264 64.256 59.7333 65.28 60.672C66.3893 61.5253 66.944 62.464 66.944 63.488C66.944 64.5973 66.3893 65.536 65.28 66.304C64.6826 66.6453 64.2133 66.7733 63.872 66.688C63.5306 66.5173 63.5306 66.2187 63.872 65.792C64.2986 65.28 64.256 64.64 63.744 63.872C63.3173 63.104 62.6773 62.4213 61.824 61.824C60.8853 61.056 59.6053 60.672 57.984 60.672C57.8133 60.672 57.6 60.672 57.344 60.672C57.088 60.672 56.8746 60.7147 56.704 60.8C53.0346 62.5067 49.152 63.36 45.056 63.36C39.8506 63.36 35.4133 62.336 31.744 60.288C28.16 58.1547 25.344 55.5093 23.296 52.352C23.296 52.864 23.2106 53.4613 23.04 54.144C22.528 55.7653 21.632 57.1733 20.352 58.368C20.7786 59.2213 20.992 60.1173 20.992 61.056C20.992 63.1893 20.096 65.152 18.304 66.944C17.28 68.0533 15.7866 69.0347 13.824 69.888C11.8613 70.656 9.98398 71.04 8.19197 71.04C6.74131 71.04 5.54664 70.6987 4.60798 70.016C4.01064 69.5893 3.66931 69.2053 3.58397 68.864C3.49864 68.4373 3.49864 68.1813 3.58397 68.096C3.83997 68.2667 4.22397 68.352 4.73597 68.352C5.75997 68.352 6.65597 67.8827 7.42397 66.944C8.27731 65.92 8.78931 64.9813 8.95998 64.128C9.13064 63.2747 9.38664 62.3787 9.72797 61.44C10.0693 60.5013 10.6666 59.52 11.52 58.496C12.8 56.96 14.4213 56.192 16.384 56.192C17.7493 56.192 18.8586 56.6187 19.712 57.472C20.5653 56.448 21.2053 55.0827 21.632 53.376C21.7173 52.9493 21.76 52.5227 21.76 52.096C21.8453 51.6693 21.888 51.2853 21.888 50.944C21.888 50.176 21.8453 49.6213 21.76 49.28C20.48 46.208 19.84 42.9227 19.84 39.424C19.84 36.4373 20.3093 33.4507 21.248 30.464C22.272 27.392 23.808 24.5333 25.856 21.888C25.5146 21.9733 25.088 22.0587 24.576 22.144C24.1493 22.144 23.7226 22.144 23.296 22.144C22.1866 22.144 21.0773 21.9307 19.968 21.504C18.944 21.0773 18.0053 20.4373 17.152 19.584C16.896 19.6693 16.512 19.712 16 19.712C14.8053 19.712 13.5253 19.2427 12.16 18.304C10.88 17.3653 9.89864 16.0853 9.21597 14.464C8.70398 13.184 8.44798 11.648 8.44798 9.856C8.44798 7.89334 8.74664 6.016 9.34398 4.224C9.94131 2.432 10.8373 1.23734 12.032 0.639999C12.7146 0.213333 13.2266 0.0426661 13.568 0.127998C13.9093 0.213336 14.1653 0.29867 14.336 0.384003C13.6533 0.981333 13.312 1.74933 13.312 2.688C13.312 3.54134 13.568 4.39467 14.08 5.248C14.592 6.016 15.1466 6.61333 15.744 7.04C16.4266 7.552 17.1093 8.14933 17.792 8.832C18.56 9.51467 19.2426 10.4533 19.84 11.648C20.2666 12.672 20.48 13.6107 20.48 14.464C20.48 16.512 19.7546 18.048 18.304 19.072C19.4986 20.096 21.0773 20.608 23.04 20.608H23.808C25.0026 20.608 26.24 20.3947 27.52 19.968C30.848 16.2133 35.2853 13.1413 40.832 10.752C46.3786 8.36267 53.12 7.168 61.056 7.168C63.0186 7.168 65.024 7.25333 67.072 7.424C69.12 7.59467 71.2106 7.85067 73.344 8.192C77.8666 8.87467 82.7733 9.984 88.064 11.52C93.44 13.056 98.7306 14.6773 103.936 16.384C109.141 18.0907 113.792 19.6693 117.888 21.12C120.363 19.6693 122.88 18.5173 125.44 17.664C128 16.8107 130.645 16.384 133.376 16.384C135.765 16.384 137.557 16.896 138.752 17.92C140.032 18.944 140.672 20.096 140.672 21.376C140.672 22.7413 139.904 23.9787 138.368 25.088C136.917 26.1973 134.613 26.7093 131.456 26.624C129.152 30.0373 127.061 33.792 125.184 37.888C123.307 41.984 121.6 46.08 120.064 50.176C118.613 54.272 117.376 58.0693 116.352 61.568C115.072 65.92 113.664 70.0587 112.128 73.984C110.677 77.9093 108.459 81.4933 105.472 84.736C110.763 80.7253 115.584 76.1173 119.936 70.912C124.373 65.7067 128.384 60.3733 131.968 54.912C134.357 51.2427 137.259 47.104 140.672 42.496C144.085 37.8027 147.84 33.1093 151.936 28.416C156.032 23.6373 160.256 19.2 164.608 15.104C169.045 10.9227 173.483 7.50933 177.92 4.864C182.357 2.13333 186.581 0.597333 190.592 0.256004C191.104 0.170667 191.616 0.127998 192.128 0.127998C192.64 0.127998 193.109 0.127998 193.536 0.127998C198.485 0.127998 202.027 1.19467 204.16 3.328C206.293 5.376 207.36 7.59467 207.36 9.984C207.36 11.52 206.933 12.9707 206.08 14.336C205.227 15.616 204.075 16.512 202.624 17.024L202.368 15.744C204.416 14.5493 205.44 12.8427 205.44 10.624C205.44 8.91734 204.672 7.33867 203.136 5.888C201.685 4.43733 199.467 3.712 196.48 3.712C194.944 3.712 193.195 3.968 191.232 4.48C188.16 5.33334 184.747 7.08267 180.992 9.728C177.237 12.3733 173.312 15.5307 169.216 19.2C165.205 22.8693 161.237 26.7947 157.312 30.976C153.472 35.072 149.888 39.04 146.56 42.88C143.232 46.72 140.373 50.0907 137.984 52.992C135.68 55.8933 134.059 57.984 133.12 59.264C131.584 61.3973 129.621 63.9573 127.232 66.944C124.928 69.9307 122.283 73.0027 119.296 76.16C116.395 79.232 113.323 82.1333 110.08 84.864C106.837 87.5093 103.552 89.6853 100.224 91.392C96.896 93.0133 93.6533 93.824 90.496 93.824C88.7893 93.824 87.936 93.6533 87.936 93.312C87.936 92.8853 88.4906 92.416 89.6 91.904C90.7093 91.392 91.4346 90.9653 91.776 90.624C92.2026 90.2827 92.928 89.2587 93.952 87.552C94.976 85.8453 96.1706 83.7973 97.536 81.408C98.9866 78.9333 100.437 76.3733 101.888 73.728C103.424 71.0827 104.789 68.6507 105.984 66.432C107.179 64.128 108.075 62.2933 108.672 60.928C109.184 59.904 110.123 58.0693 111.488 55.424C112.853 52.6933 114.517 49.6213 116.48 46.208C118.443 42.7093 120.491 39.2107 122.624 35.712C124.843 32.128 127.019 29.0133 129.152 26.368C128.555 26.2827 127.872 26.1547 127.104 25.984C126.336 25.8133 125.525 25.6427 124.672 25.472L120.96 24.32C118.229 26.624 115.541 29.3547 112.896 32.512C110.251 35.6693 107.776 38.912 105.472 42.24C103.253 45.4827 101.248 48.5547 99.456 51.456C97.664 54.3573 96.2133 56.704 95.104 58.496C92.544 62.848 89.3866 67.6693 85.632 72.96C81.8773 78.2507 77.6533 83.5413 72.96 88.832C68.2666 94.1227 63.232 98.9867 57.856 103.424C52.5653 107.861 47.0186 111.403 41.216 114.048C35.4133 116.779 29.568 118.144 23.68 118.144ZM133.888 24.576C135.339 24.4907 136.491 24.1067 137.344 23.424C138.197 22.7413 138.624 21.9733 138.624 21.12C138.624 20.352 138.197 19.6693 137.344 19.072C136.576 18.4747 135.253 18.176 133.376 18.176C131.755 18.2613 130.048 18.7307 128.256 19.584C126.464 20.352 124.672 21.4187 122.88 22.784C124.331 23.296 125.653 23.68 126.848 23.936C128.043 24.192 129.365 24.3627 130.816 24.448C131.413 23.7653 131.968 23.168 132.48 22.656C133.077 22.0587 133.675 21.5893 134.272 21.248L135.04 21.632C134.699 22.0587 134.357 22.528 134.016 23.04C133.675 23.552 133.291 24.064 132.864 24.576H133.888ZM144 104.448C142.208 104.448 140.587 103.893 139.136 102.784C138.027 102.016 137.216 100.864 136.704 99.328C136.192 97.792 135.936 96.0853 135.936 94.208C135.936 92.672 136.064 91.0507 136.32 89.344C136.661 87.6373 137.088 85.888 137.6 84.096C139.051 79.1467 141.269 73.6853 144.256 67.712C147.328 61.7387 150.827 55.68 154.752 49.536C158.677 43.392 162.816 37.632 167.168 32.256C171.605 26.7947 175.915 22.144 180.096 18.304L180.864 19.2C178.048 22.6133 175.189 26.624 172.288 31.232C169.472 35.7547 166.699 40.576 163.968 45.696C161.323 50.816 158.805 55.9787 156.416 61.184C154.112 66.304 152.107 71.2107 150.4 75.904C150.315 76.16 149.973 77.056 149.376 78.592C148.864 80.128 148.267 82.048 147.584 84.352C146.987 86.5707 146.432 88.832 145.92 91.136C145.408 93.44 145.152 95.4453 145.152 97.152C145.152 98.3467 145.323 99.328 145.664 100.096C146.005 100.864 146.56 101.248 147.328 101.248C148.096 101.248 149.12 100.864 150.4 100.096C150.997 99.6693 151.552 99.2427 152.064 98.816C152.576 98.4747 153.088 98.048 153.6 97.536L154.624 98.688C153.429 100.053 151.851 101.333 149.888 102.528C148.011 103.808 146.048 104.448 144 104.448ZM170.714 94.592C168.325 94.592 166.49 93.696 165.21 91.904C163.93 90.0267 163.29 87.6373 163.29 84.736C163.29 81.5787 164.143 77.9093 165.85 73.728C166.789 71.424 168.197 69.0773 170.074 66.688C171.951 64.2133 174.127 61.952 176.602 59.904C179.077 57.7707 181.722 56.064 184.538 54.784C187.439 53.4187 190.383 52.736 193.37 52.736C195.674 52.736 197.253 53.3333 198.106 54.528C198.959 55.7227 199.386 57.1733 199.386 58.88C199.386 60.5013 199.13 62.1653 198.618 63.872L205.786 52.992C206.383 52.5653 207.706 52.352 209.754 52.352C211.29 52.352 212.741 52.5227 214.106 52.864C215.557 53.2053 215.983 53.7173 215.386 54.4C214.703 55.2533 213.509 56.576 211.802 58.368C210.181 60.0747 208.389 62.1227 206.426 64.512C204.549 66.9013 202.757 69.4187 201.05 72.064C200.197 73.5147 198.917 75.648 197.21 78.464C195.589 81.28 194.309 83.968 193.37 86.528C192.858 88.064 192.602 89.3013 192.602 90.24C192.602 92.032 193.37 92.928 194.906 92.928C195.759 92.928 196.911 92.6293 198.362 92.032C199.813 91.3493 201.221 90.4533 202.586 89.344C205.317 87.1253 207.706 84.48 209.754 81.408C211.802 78.2507 213.637 75.4773 215.258 73.088C215.343 73.0027 215.429 72.9173 215.514 72.832C215.685 72.7467 215.941 72.704 216.282 72.704C216.623 72.704 216.879 72.8747 217.05 73.216C217.221 73.472 217.135 73.8133 216.794 74.24C214.405 77.824 212.058 81.1947 209.754 84.352C207.45 87.424 205.103 89.8987 202.714 91.776C200.325 93.6533 197.722 94.592 194.906 94.592C192.687 94.592 190.895 93.952 189.53 92.672C188.25 91.3067 187.61 89.472 187.61 87.168C187.61 86.144 187.695 85.0773 187.866 83.968C188.122 82.8587 188.421 81.8347 188.762 80.896C187.397 82.688 185.69 84.6507 183.642 86.784C181.679 88.9173 179.589 90.752 177.37 92.288C175.151 93.824 172.933 94.592 170.714 94.592ZM171.866 92.16C173.573 92.16 175.365 91.4773 177.242 90.112C179.205 88.7467 181.167 86.9973 183.13 84.864C185.093 82.6453 186.885 80.2987 188.506 77.824C189.871 75.776 191.194 73.6 192.474 71.296C193.839 68.992 194.949 66.7307 195.802 64.512C196.741 62.2933 197.21 60.288 197.21 58.496C197.21 55.7653 196.229 54.4 194.266 54.4C192.901 54.4 191.322 54.9973 189.53 56.192C187.738 57.3867 185.903 58.9227 184.026 60.8C182.234 62.6773 180.527 64.7253 178.906 66.944C177.37 69.0773 176.133 71.168 175.194 73.216C174.938 73.728 174.298 74.9653 173.274 76.928C172.335 78.8907 171.397 81.024 170.458 83.328C169.605 85.632 169.178 87.6373 169.178 89.344C169.178 91.2213 170.074 92.16 171.866 92.16ZM226.894 95.104C225.187 95.104 223.651 94.592 222.286 93.568C221.006 92.544 220.366 91.0933 220.366 89.216C220.366 87.0827 220.921 84.7787 222.03 82.304C223.225 79.8293 224.505 77.6107 225.87 75.648C227.235 73.6 228.131 72.2773 228.558 71.68C230.094 69.632 231.502 67.5413 232.782 65.408C234.147 63.1893 234.83 61.3973 234.83 60.032C234.83 58.752 234.275 57.9413 233.166 57.6C232.227 57.2587 231.246 56.9173 230.222 56.576C229.198 56.1493 228.43 55.8933 227.918 55.808C227.662 56.2347 227.065 57.2587 226.126 58.88C225.187 60.416 224.078 62.208 222.798 64.256C221.603 66.2187 220.451 68.1387 219.342 70.016C218.233 71.8933 217.379 73.3013 216.782 74.24C216.27 74.8373 215.843 75.136 215.502 75.136C215.161 75.136 214.905 74.9653 214.734 74.624C214.649 74.2827 214.734 73.8987 214.99 73.472C217.55 69.4613 219.811 65.7067 221.774 62.208C223.737 58.7093 225.017 56.4907 225.614 55.552C224.761 54.9547 224.078 53.9307 223.566 52.48C223.054 51.0293 222.798 49.536 222.798 48C222.798 46.2933 223.139 44.7573 223.822 43.392C224.505 42.0267 225.657 41.344 227.278 41.344C228.387 41.344 229.155 41.8987 229.582 43.008C230.009 44.032 230.222 45.2267 230.222 46.592C230.222 47.7867 230.094 48.9387 229.838 50.048C229.582 51.1573 229.369 51.9253 229.198 52.352L228.302 54.4C229.326 54.4853 230.862 54.656 232.91 54.912C234.958 55.168 237.091 55.4667 239.31 55.808C240.59 55.9787 241.614 56.448 242.382 57.216C243.235 57.984 243.662 59.008 243.662 60.288C243.662 61.568 243.235 63.104 242.382 64.896C241.529 66.688 240.078 68.736 238.03 71.04C237.006 72.2347 235.769 73.8133 234.318 75.776C232.867 77.7387 231.502 79.6587 230.222 81.536C228.942 83.328 228.003 84.736 227.406 85.76C226.297 87.552 225.742 89.1733 225.742 90.624C225.742 92.2453 226.638 93.056 228.43 93.056C230.393 93.056 232.483 92.3307 234.702 90.88C236.921 89.344 239.097 87.4667 241.23 85.248C243.363 83.0293 245.241 80.8533 246.862 78.72C248.569 76.5013 249.806 74.752 250.574 73.472C250.915 72.8747 251.385 72.576 251.982 72.576C252.409 72.576 252.622 72.7893 252.622 73.216C252.622 73.6427 252.537 73.984 252.366 74.24C251.513 75.52 250.105 77.44 248.142 80C246.265 82.56 244.003 85.1627 241.358 87.808C238.713 90.368 235.769 92.3733 232.526 93.824C231.502 94.2507 230.478 94.5493 229.454 94.72C228.43 94.976 227.577 95.104 226.894 95.104ZM274.935 47.232C273.74 47.232 272.802 46.848 272.119 46.08C271.522 45.312 271.223 44.416 271.223 43.392C271.223 41.6853 271.82 40.32 273.015 39.296C274.21 38.272 275.49 37.76 276.855 37.76C278.05 37.76 278.988 38.144 279.671 38.912C280.354 39.5947 280.695 40.4907 280.695 41.6C280.695 43.2213 280.098 44.5867 278.903 45.696C277.708 46.72 276.386 47.232 274.935 47.232ZM253.687 95.36C251.383 95.36 249.42 94.6773 247.799 93.312C246.263 91.8613 245.495 89.8133 245.495 87.168C245.495 85.8027 245.751 84.224 246.263 82.432C246.86 80.5547 247.543 78.848 248.311 77.312C249.164 75.6907 249.89 74.368 250.487 73.344C251.17 72.32 251.511 71.808 251.511 71.808L264.055 53.248C264.567 52.8213 265.207 52.5653 265.975 52.48C266.743 52.3093 267.554 52.224 268.407 52.224C269.602 52.224 270.626 52.352 271.479 52.608C272.332 52.7787 272.674 53.0773 272.503 53.504L259.831 72.32C259.575 72.6613 258.722 73.856 257.271 75.904C255.906 77.8667 254.583 80.0427 253.303 82.432C251.682 85.4187 250.871 87.9787 250.871 90.112C250.871 92.416 251.938 93.568 254.071 93.568C254.754 93.568 255.564 93.44 256.503 93.184C257.527 92.8427 258.679 92.3307 259.959 91.648C265.335 88.6613 270.839 82.6027 276.471 73.472C276.727 73.0453 276.94 72.832 277.111 72.832C277.367 72.7467 277.538 72.704 277.623 72.704C278.05 72.704 278.306 72.8747 278.391 73.216C278.562 73.472 278.519 73.8133 278.263 74.24C275.191 78.9333 272.162 82.9867 269.175 86.4C266.274 89.8133 263.202 92.288 259.959 93.824C257.826 94.848 255.735 95.36 253.687 95.36ZM280.714 94.592C278.325 94.592 276.49 93.696 275.21 91.904C273.93 90.0267 273.29 87.6373 273.29 84.736C273.29 81.5787 274.143 77.9093 275.85 73.728C276.789 71.424 278.197 69.0773 280.074 66.688C281.951 64.2133 284.127 61.952 286.602 59.904C289.077 57.7707 291.722 56.064 294.538 54.784C297.439 53.4187 300.383 52.736 303.37 52.736C305.674 52.736 307.253 53.3333 308.106 54.528C308.959 55.7227 309.386 57.1733 309.386 58.88C309.386 60.5013 309.13 62.1653 308.618 63.872L315.786 52.992C316.383 52.5653 317.706 52.352 319.754 52.352C321.29 52.352 322.741 52.5227 324.106 52.864C325.557 53.2053 325.983 53.7173 325.386 54.4C324.703 55.2533 323.509 56.576 321.802 58.368C320.181 60.0747 318.389 62.1227 316.426 64.512C314.549 66.9013 312.757 69.4187 311.05 72.064C310.197 73.5147 308.917 75.648 307.21 78.464C305.589 81.28 304.309 83.968 303.37 86.528C302.858 88.064 302.602 89.3013 302.602 90.24C302.602 92.032 303.37 92.928 304.906 92.928C305.759 92.928 306.911 92.6293 308.362 92.032C309.813 91.3493 311.221 90.4533 312.586 89.344C315.317 87.1253 317.706 84.48 319.754 81.408C321.802 78.2507 323.637 75.4773 325.258 73.088C325.343 73.0027 325.429 72.9173 325.514 72.832C325.685 72.7467 325.941 72.704 326.282 72.704C326.623 72.704 326.879 72.8747 327.05 73.216C327.221 73.472 327.135 73.8133 326.794 74.24C324.405 77.824 322.058 81.1947 319.754 84.352C317.45 87.424 315.103 89.8987 312.714 91.776C310.325 93.6533 307.722 94.592 304.906 94.592C302.687 94.592 300.895 93.952 299.53 92.672C298.25 91.3067 297.61 89.472 297.61 87.168C297.61 86.144 297.695 85.0773 297.866 83.968C298.122 82.8587 298.421 81.8347 298.762 80.896C297.397 82.688 295.69 84.6507 293.642 86.784C291.679 88.9173 289.589 90.752 287.37 92.288C285.151 93.824 282.933 94.592 280.714 94.592ZM281.866 92.16C283.573 92.16 285.365 91.4773 287.242 90.112C289.205 88.7467 291.167 86.9973 293.13 84.864C295.093 82.6453 296.885 80.2987 298.506 77.824C299.871 75.776 301.194 73.6 302.474 71.296C303.839 68.992 304.949 66.7307 305.802 64.512C306.741 62.2933 307.21 60.288 307.21 58.496C307.21 55.7653 306.229 54.4 304.266 54.4C302.901 54.4 301.322 54.9973 299.53 56.192C297.738 57.3867 295.903 58.9227 294.026 60.8C292.234 62.6773 290.527 64.7253 288.906 66.944C287.37 69.0773 286.133 71.168 285.194 73.216C284.938 73.728 284.298 74.9653 283.274 76.928C282.335 78.8907 281.397 81.024 280.458 83.328C279.605 85.632 279.178 87.6373 279.178 89.344C279.178 91.2213 280.074 92.16 281.866 92.16ZM416.475 111.616C415.963 111.616 415.366 111.488 414.683 111.232C414.086 110.976 413.744 110.635 413.659 110.208C413.574 109.867 413.83 109.696 414.427 109.696C415.11 109.696 415.707 109.312 416.219 108.544C416.816 107.776 417.115 107.008 417.115 106.24C417.115 105.472 416.774 104.491 416.091 103.296C415.494 102.101 414.64 101.12 413.531 100.352C410.032 98.7307 406.534 97.0667 403.035 95.36C399.536 93.7387 396.08 92.1173 392.667 90.496C388.23 94.2507 383.11 97.2373 377.307 99.456C371.59 101.675 365.702 102.784 359.643 102.784C358.619 102.784 357.638 102.699 356.699 102.528C355.846 102.443 354.992 102.315 354.139 102.144V102.4C353.456 101.973 352.688 101.76 351.835 101.76C351.152 101.76 350.47 101.888 349.787 102.144C349.104 102.4 348.55 102.699 348.123 103.04C347.27 103.637 346.63 104.32 346.203 105.088C345.776 105.856 345.734 106.496 346.075 107.008C346.246 107.349 346.331 107.52 346.331 107.52C346.331 107.776 346.16 107.904 345.819 107.904C345.478 107.904 345.094 107.776 344.667 107.52C343.558 106.752 343.003 105.813 343.003 104.704C343.003 102.997 344.112 101.717 346.331 100.864C347.355 100.523 348.422 100.395 349.531 100.48C346.544 98.944 344.24 96.8533 342.619 94.208C341.083 91.5627 340.315 88.8747 340.315 86.144C340.315 82.56 341.723 79.36 344.539 76.544C347.355 73.6427 351.75 72.192 357.723 72.192C360.454 72.192 363.526 72.576 366.939 73.344C370.352 74.112 374.107 75.3493 378.203 77.056C380.336 77.9093 382.555 78.976 384.859 80.256C387.248 81.4507 389.723 82.7733 392.283 84.224L392.667 83.84C395.398 81.1093 397.744 78.1227 399.707 74.88C401.755 71.552 403.718 68.224 405.595 64.896C403.632 64.7253 401.627 64.512 399.579 64.256C397.531 64 395.526 63.6587 393.563 63.232C386.736 61.696 381.147 59.5627 376.795 56.832C372.443 54.1013 369.115 51.072 366.811 47.744C366.299 47.488 365.744 47.3173 365.147 47.232C364.635 47.1467 364.123 47.104 363.611 47.104C363.27 47.104 362.928 47.104 362.587 47.104C362.331 47.104 362.075 47.1893 361.819 47.36C362.331 48.128 362.587 48.9387 362.587 49.792C362.587 51.7547 361.819 53.376 360.283 54.656C359.259 55.5947 358.278 56.2347 357.339 56.576C356.4 56.9173 355.547 57.1733 354.779 57.344C353.926 57.6 352.987 58.1547 351.963 59.008C350.939 59.776 350.427 60.672 350.427 61.696C350.427 62.1227 350.555 62.5493 350.811 62.976H350.683C350.512 62.976 350.256 62.9333 349.915 62.848C349.574 62.6773 349.19 62.336 348.763 61.824C348.166 60.9707 347.867 59.8187 347.867 58.368C347.867 56.576 348.251 54.6987 349.019 52.736C349.787 50.7733 350.683 49.2373 351.707 48.128C352.646 47.1893 353.627 46.5067 354.651 46.08C355.76 45.6533 356.784 45.44 357.723 45.44C359.174 45.44 360.283 45.7813 361.051 46.464C362.331 45.7813 363.867 45.568 365.659 45.824C363.526 41.8987 362.587 37.8027 362.843 33.536C362.246 31.9147 361.435 30.8053 360.411 30.208C359.302 29.3547 358.278 28.928 357.339 28.928C356.742 28.928 356.315 29.0987 356.059 29.44C355.974 29.696 355.803 29.824 355.547 29.824C355.035 29.824 354.907 29.312 355.163 28.288C355.675 26.5813 356.699 25.728 358.235 25.728C359.6 25.728 360.88 26.4533 362.075 27.904C362.587 28.5013 362.971 29.3547 363.227 30.464C363.995 26.7947 365.574 23.424 367.963 20.352C370.438 17.28 373.51 14.8053 377.179 12.928C380.934 11.0507 385.115 10.112 389.723 10.112C393.222 10.112 396.934 10.752 400.859 12.032C405.808 13.6533 409.563 16.0853 412.123 19.328C414.683 22.5707 415.963 25.9413 415.963 29.44C415.963 32.8533 414.896 35.7973 412.763 38.272C413.019 39.1253 412.891 40.1067 412.379 41.216C411.952 42.24 411.056 43.0507 409.691 43.648C409.094 43.904 408.326 44.032 407.387 44.032C405.424 44.032 403.504 43.6053 401.627 42.752C401.371 42.6667 401.115 42.624 400.859 42.624C400.603 42.5387 400.347 42.496 400.091 42.496C399.494 42.496 398.896 42.5813 398.299 42.752C397.787 42.9227 397.446 43.2213 397.275 43.648C397.104 43.9893 396.934 44.288 396.763 44.544C396.678 44.7147 396.55 44.6293 396.379 44.288C396.208 43.776 396.123 43.392 396.123 43.136C396.123 42.0267 396.635 41.088 397.659 40.32C398.768 39.4667 400.091 38.912 401.627 38.656C403.248 38.4 404.443 38.3573 405.211 38.528C405.296 38.6133 405.467 38.656 405.723 38.656C405.296 38.2293 405.083 37.7173 405.083 37.12C405.083 36.352 405.339 35.7973 405.851 35.456C406.107 35.2853 406.32 35.2853 406.491 35.456C406.662 35.5413 406.662 35.712 406.491 35.968C406.406 36.1387 406.363 36.352 406.363 36.608C406.363 37.2053 406.662 37.7173 407.259 38.144C407.856 38.5707 408.496 38.784 409.179 38.784C409.776 38.6133 410.288 38.4427 410.715 38.272C411.227 38.016 411.654 37.76 411.995 37.504C413.616 35.3707 414.427 32.9387 414.427 30.208C414.427 27.0507 413.232 23.936 410.843 20.864C408.539 17.792 404.998 15.4453 400.219 13.824L399.451 13.568C400.219 13.9947 400.944 14.6347 401.627 15.488C402.395 16.512 402.779 17.6213 402.779 18.816C402.779 20.9493 401.627 22.1013 399.323 22.272C398.64 22.272 398.171 22.1013 397.915 21.76C397.659 21.4187 397.787 21.1627 398.299 20.992C399.067 20.736 399.451 20.0533 399.451 18.944C399.451 18.2613 399.238 17.408 398.811 16.384C398.555 15.7013 398 14.976 397.147 14.208C396.379 13.44 395.526 12.8853 394.587 12.544C394.16 12.4587 393.691 12.416 393.179 12.416C392.667 12.416 392.198 12.416 391.771 12.416C387.675 12.416 383.92 13.3547 380.507 15.232C377.094 17.1093 374.278 19.584 372.059 22.656C369.84 25.6427 368.39 28.928 367.707 32.512C368.475 31.744 369.243 31.0613 370.011 30.464C370.864 29.8667 371.931 29.3973 373.211 29.056V28.928C373.552 27.8187 374.363 26.88 375.643 26.112C376.923 25.2587 378.416 24.832 380.123 24.832C380.55 24.832 380.934 24.8747 381.275 24.96C381.702 24.96 382.086 25.0027 382.427 25.088C383.878 25.4293 385.414 26.1547 387.035 27.264C388.656 28.3733 390.022 29.6533 391.131 31.104C392.326 32.5547 392.923 33.9627 392.923 35.328C392.923 36.2667 392.752 36.9067 392.411 37.248C392.07 37.504 391.814 37.6747 391.643 37.76C391.558 36.6507 391.046 35.8827 390.107 35.456C389.254 34.944 388.315 34.688 387.291 34.688C386.523 34.688 385.798 34.816 385.115 35.072C384.262 35.328 383.323 35.584 382.299 35.84C381.275 36.096 380.038 36.1387 378.587 35.968C377.222 35.7973 375.984 35.2 374.875 34.176C373.766 33.152 373.168 31.9573 373.083 30.592C371.888 30.9333 370.822 31.488 369.883 32.256C368.944 33.024 368.091 34.2187 367.323 35.84C367.238 39.2533 368.048 42.6667 369.755 46.08C371.547 49.408 374.406 52.4373 378.331 55.168C382.256 57.8133 387.462 59.904 393.947 61.44C396.166 61.8667 398.299 62.2507 400.347 62.592C402.48 62.848 404.614 63.0187 406.747 63.104C408.624 59.8613 410.502 56.5333 412.379 53.12C414.342 49.6213 416.39 46.0373 418.523 42.368C420.912 38.3573 423.43 34.3467 426.075 30.336C428.806 26.24 431.835 22.4853 435.163 19.072C438.576 15.5733 442.502 12.7573 446.939 10.624C448.646 9.68534 450.395 9.04534 452.187 8.704C454.064 8.27734 455.814 8.064 457.435 8.064C461.36 8.064 464.688 9.13067 467.419 11.264C470.235 13.3973 471.643 16.4267 471.643 20.352C471.643 22.4853 471.131 24.832 470.107 27.392C469.083 29.952 467.462 32.7253 465.243 35.712C458.758 44.2453 451.12 51.072 442.331 56.192C433.627 61.2267 423.984 64.0853 413.403 64.768C411.014 68.1813 408.582 71.5947 406.107 75.008C403.632 78.336 401.03 81.6213 398.299 84.864C398.043 85.2053 397.744 85.5467 397.403 85.888C397.147 86.144 396.891 86.4 396.635 86.656L403.035 90.368H403.419C404.87 90.88 406.448 91.136 408.155 91.136C409.52 91.136 410.544 90.9653 411.227 90.624C411.142 90.368 411.056 90.1547 410.971 89.984C410.971 89.728 410.971 89.472 410.971 89.216C410.971 88.192 411.312 87.296 411.995 86.528C412.763 85.6747 413.616 85.0773 414.555 84.736C415.579 84.3947 416.603 84.224 417.627 84.224C418.054 84.224 418.438 84.2667 418.779 84.352C419.12 84.352 419.462 84.3947 419.803 84.48C420.742 84.5653 421.808 84.3947 423.003 83.968C424.283 83.456 424.838 82.6027 424.667 81.408C424.838 81.4933 425.094 81.664 425.435 81.92C425.776 82.0907 425.947 82.7307 425.947 83.84C425.947 85.4613 425.179 87.168 423.643 88.96C422.192 90.752 420.699 91.9893 419.163 92.672C418.054 93.0987 417.072 93.312 416.219 93.312C414.256 93.312 412.763 92.672 411.739 91.392C410.288 92.3307 408.624 92.672 406.747 92.416C412.635 95.8293 418.438 98.9013 424.155 101.632C429.958 104.448 435.12 106.155 439.643 106.752C440.07 106.837 440.454 106.88 440.795 106.88C441.136 106.88 441.478 106.88 441.819 106.88C445.147 106.88 447.792 106.069 449.755 104.448C451.718 102.827 452.699 101.077 452.699 99.2C452.699 97.2373 451.76 95.7013 449.883 94.592L450.651 93.44C453.382 95.0613 454.747 97.0667 454.747 99.456C454.747 101.76 453.51 103.851 451.035 105.728C448.646 107.691 445.574 108.672 441.819 108.672C441.478 108.672 441.094 108.672 440.667 108.672C440.24 108.672 439.814 108.629 439.387 108.544C435.974 108.117 432.39 107.264 428.635 105.984C424.88 104.789 420.998 103.381 416.987 101.76C417.926 102.613 418.651 103.595 419.163 104.704C419.675 105.899 419.931 106.88 419.931 107.648C419.931 108.757 419.59 109.696 418.907 110.464C418.224 111.232 417.414 111.616 416.475 111.616ZM414.811 62.848C424.283 61.9093 433.115 59.008 441.307 54.144C449.499 49.1947 456.71 42.7093 462.939 34.688C465.328 31.7013 467.035 28.9707 468.059 26.496C469.083 24.0213 469.595 21.8453 469.595 19.968C469.595 17.7493 468.912 16.0427 467.547 14.848C466.267 13.6533 464.518 13.056 462.299 13.056C458.8 13.056 454.406 14.8053 449.115 18.304C443.91 21.7173 438.662 27.3067 433.371 35.072C430.214 39.7653 427.099 44.4587 424.027 49.152C421.04 53.76 417.968 58.3253 414.811 62.848ZM359.643 100.864C359.899 100.864 360.155 100.864 360.411 100.864C360.667 100.864 360.966 100.821 361.307 100.736C361.051 100.736 360.838 100.651 360.667 100.48C359.814 100.053 359.046 99.6267 358.363 99.2C357.766 98.8587 357.254 98.3893 356.827 97.792C356.315 97.024 356.059 96.1707 356.059 95.232C356.059 94.464 356.272 93.7813 356.699 93.184C357.211 92.5013 357.936 92.16 358.875 92.16C359.558 92.16 359.984 92.3307 360.155 92.672C360.411 92.928 360.326 93.0987 359.899 93.184C359.216 93.2693 358.875 93.9093 358.875 95.104C358.875 95.5307 358.96 96.0853 359.131 96.768C359.302 97.3653 359.728 98.048 360.411 98.816C361.094 99.584 361.947 100.224 362.971 100.736C368.176 100.309 372.827 98.9867 376.923 96.768C381.104 94.6347 384.944 91.8613 388.443 88.448C386.054 87.2533 383.75 86.2293 381.531 85.376C376.923 83.4133 372.742 82.048 368.987 81.28C365.318 80.4267 362.032 80 359.131 80C353.926 80 350.043 81.0667 347.483 83.2C345.008 85.248 343.771 87.552 343.771 90.112C343.771 92.7573 345.094 95.1893 347.739 97.408C350.47 99.712 354.438 100.864 359.643 100.864ZM445.714 94.592C443.325 94.592 441.49 93.696 440.21 91.904C438.93 90.0267 438.29 87.6373 438.29 84.736C438.29 81.5787 439.143 77.9093 440.85 73.728C441.789 71.424 443.197 69.0773 445.074 66.688C446.951 64.2133 449.127 61.952 451.602 59.904C454.077 57.7707 456.722 56.064 459.538 54.784C462.439 53.4187 465.383 52.736 468.37 52.736C470.674 52.736 472.253 53.3333 473.106 54.528C473.959 55.7227 474.386 57.1733 474.386 58.88C474.386 60.5013 474.13 62.1653 473.618 63.872L480.786 52.992C481.383 52.5653 482.706 52.352 484.754 52.352C486.29 52.352 487.741 52.5227 489.106 52.864C490.557 53.2053 490.983 53.7173 490.386 54.4C489.703 55.2533 488.509 56.576 486.802 58.368C485.181 60.0747 483.389 62.1227 481.426 64.512C479.549 66.9013 477.757 69.4187 476.05 72.064C475.197 73.5147 473.917 75.648 472.21 78.464C470.589 81.28 469.309 83.968 468.37 86.528C467.858 88.064 467.602 89.3013 467.602 90.24C467.602 92.032 468.37 92.928 469.906 92.928C470.759 92.928 471.911 92.6293 473.362 92.032C474.813 91.3493 476.221 90.4533 477.586 89.344C480.317 87.1253 482.706 84.48 484.754 81.408C486.802 78.2507 488.637 75.4773 490.258 73.088C490.343 73.0027 490.429 72.9173 490.514 72.832C490.685 72.7467 490.941 72.704 491.282 72.704C491.623 72.704 491.879 72.8747 492.05 73.216C492.221 73.472 492.135 73.8133 491.794 74.24C489.405 77.824 487.058 81.1947 484.754 84.352C482.45 87.424 480.103 89.8987 477.714 91.776C475.325 93.6533 472.722 94.592 469.906 94.592C467.687 94.592 465.895 93.952 464.53 92.672C463.25 91.3067 462.61 89.472 462.61 87.168C462.61 86.144 462.695 85.0773 462.866 83.968C463.122 82.8587 463.421 81.8347 463.762 80.896C462.397 82.688 460.69 84.6507 458.642 86.784C456.679 88.9173 454.589 90.752 452.37 92.288C450.151 93.824 447.933 94.592 445.714 94.592ZM446.866 92.16C448.573 92.16 450.365 91.4773 452.242 90.112C454.205 88.7467 456.167 86.9973 458.13 84.864C460.093 82.6453 461.885 80.2987 463.506 77.824C464.871 75.776 466.194 73.6 467.474 71.296C468.839 68.992 469.949 66.7307 470.802 64.512C471.741 62.2933 472.21 60.288 472.21 58.496C472.21 55.7653 471.229 54.4 469.266 54.4C467.901 54.4 466.322 54.9973 464.53 56.192C462.738 57.3867 460.903 58.9227 459.026 60.8C457.234 62.6773 455.527 64.7253 453.906 66.944C452.37 69.0773 451.133 71.168 450.194 73.216C449.938 73.728 449.298 74.9653 448.274 76.928C447.335 78.8907 446.397 81.024 445.458 83.328C444.605 85.632 444.178 87.6373 444.178 89.344C444.178 91.2213 445.074 92.16 446.866 92.16ZM501.894 95.104C500.187 95.104 498.651 94.592 497.286 93.568C496.006 92.544 495.366 91.0933 495.366 89.216C495.366 87.0827 495.921 84.7787 497.03 82.304C498.225 79.8293 499.505 77.6107 500.87 75.648C502.235 73.6 503.131 72.2773 503.558 71.68C505.094 69.632 506.502 67.5413 507.782 65.408C509.147 63.1893 509.83 61.3973 509.83 60.032C509.83 58.752 509.275 57.9413 508.166 57.6C507.227 57.2587 506.246 56.9173 505.222 56.576C504.198 56.1493 503.43 55.8933 502.918 55.808C502.662 56.2347 502.065 57.2587 501.126 58.88C500.187 60.416 499.078 62.208 497.798 64.256C496.603 66.2187 495.451 68.1387 494.342 70.016C493.233 71.8933 492.379 73.3013 491.782 74.24C491.27 74.8373 490.843 75.136 490.502 75.136C490.161 75.136 489.905 74.9653 489.734 74.624C489.649 74.2827 489.734 73.8987 489.99 73.472C492.55 69.4613 494.811 65.7067 496.774 62.208C498.737 58.7093 500.017 56.4907 500.614 55.552C499.761 54.9547 499.078 53.9307 498.566 52.48C498.054 51.0293 497.798 49.536 497.798 48C497.798 46.2933 498.139 44.7573 498.822 43.392C499.505 42.0267 500.657 41.344 502.278 41.344C503.387 41.344 504.155 41.8987 504.582 43.008C505.009 44.032 505.222 45.2267 505.222 46.592C505.222 47.7867 505.094 48.9387 504.838 50.048C504.582 51.1573 504.369 51.9253 504.198 52.352L503.302 54.4C504.326 54.4853 505.862 54.656 507.91 54.912C509.958 55.168 512.091 55.4667 514.31 55.808C515.59 55.9787 516.614 56.448 517.382 57.216C518.235 57.984 518.662 59.008 518.662 60.288C518.662 61.568 518.235 63.104 517.382 64.896C516.529 66.688 515.078 68.736 513.03 71.04C512.006 72.2347 510.769 73.8133 509.318 75.776C507.867 77.7387 506.502 79.6587 505.222 81.536C503.942 83.328 503.003 84.736 502.406 85.76C501.297 87.552 500.742 89.1733 500.742 90.624C500.742 92.2453 501.638 93.056 503.43 93.056C505.393 93.056 507.483 92.3307 509.702 90.88C511.921 89.344 514.097 87.4667 516.23 85.248C518.363 83.0293 520.241 80.8533 521.862 78.72C523.569 76.5013 524.806 74.752 525.574 73.472C525.915 72.8747 526.385 72.576 526.982 72.576C527.409 72.576 527.622 72.7893 527.622 73.216C527.622 73.6427 527.537 73.984 527.366 74.24C526.513 75.52 525.105 77.44 523.142 80C521.265 82.56 519.003 85.1627 516.358 87.808C513.713 90.368 510.769 92.3733 507.526 93.824C506.502 94.2507 505.478 94.5493 504.454 94.72C503.43 94.976 502.577 95.104 501.894 95.104ZM549.935 47.232C548.74 47.232 547.802 46.848 547.119 46.08C546.522 45.312 546.223 44.416 546.223 43.392C546.223 41.6853 546.82 40.32 548.015 39.296C549.21 38.272 550.49 37.76 551.855 37.76C553.05 37.76 553.988 38.144 554.671 38.912C555.354 39.5947 555.695 40.4907 555.695 41.6C555.695 43.2213 555.098 44.5867 553.903 45.696C552.708 46.72 551.386 47.232 549.935 47.232ZM528.687 95.36C526.383 95.36 524.42 94.6773 522.799 93.312C521.263 91.8613 520.495 89.8133 520.495 87.168C520.495 85.8027 520.751 84.224 521.263 82.432C521.86 80.5547 522.543 78.848 523.311 77.312C524.164 75.6907 524.89 74.368 525.487 73.344C526.17 72.32 526.511 71.808 526.511 71.808L539.055 53.248C539.567 52.8213 540.207 52.5653 540.975 52.48C541.743 52.3093 542.554 52.224 543.407 52.224C544.602 52.224 545.626 52.352 546.479 52.608C547.332 52.7787 547.674 53.0773 547.503 53.504L534.831 72.32C534.575 72.6613 533.722 73.856 532.271 75.904C530.906 77.8667 529.583 80.0427 528.303 82.432C526.682 85.4187 525.871 87.9787 525.871 90.112C525.871 92.416 526.938 93.568 529.071 93.568C529.754 93.568 530.564 93.44 531.503 93.184C532.527 92.8427 533.679 92.3307 534.959 91.648C540.335 88.6613 545.839 82.6027 551.471 73.472C551.727 73.0453 551.94 72.832 552.111 72.832C552.367 72.7467 552.538 72.704 552.623 72.704C553.05 72.704 553.306 72.8747 553.391 73.216C553.562 73.472 553.519 73.8133 553.263 74.24C550.191 78.9333 547.162 82.9867 544.175 86.4C541.274 89.8133 538.202 92.288 534.959 93.824C532.826 94.848 530.735 95.36 528.687 95.36ZM587.714 72.704C587.97 72.704 588.183 72.832 588.354 73.088C588.525 73.344 588.525 73.728 588.354 74.24C584.343 80.64 579.778 85.2053 574.658 87.936C569.538 90.5813 564.461 92.3733 559.426 93.312C557.378 93.824 555.245 94.08 553.026 94.08C550.125 94.08 547.394 93.5253 544.834 92.416C542.274 91.3067 540.439 89.472 539.33 86.912C538.818 85.632 538.562 84.352 538.562 83.072C538.562 81.1947 539.031 79.5733 539.97 78.208C540.994 76.7573 542.061 75.7333 543.17 75.136C543.853 74.7093 544.578 74.4533 545.346 74.368C546.199 74.1973 547.053 74.112 547.906 74.112C549.015 74.112 549.997 74.24 550.85 74.496C551.106 74.0693 551.874 72.832 553.154 70.784C554.434 68.6507 556.013 66.176 557.89 63.36C559.767 60.4587 561.73 57.728 563.778 55.168C565.997 52.4373 568.13 50.176 570.178 48.384C572.226 46.592 573.719 45.6107 574.658 45.44C574.914 45.3547 575.17 45.312 575.426 45.312C575.682 45.312 575.895 45.312 576.066 45.312C577.005 45.312 577.687 45.5253 578.114 45.952C578.626 46.3787 578.882 46.8907 578.882 47.488C578.882 48.0853 578.541 48.6827 577.858 49.28C577.261 49.8773 576.365 50.176 575.17 50.176C573.805 50.176 572.439 50.56 571.074 51.328C569.709 52.0107 568.898 52.8213 568.642 53.76C568.386 54.528 568.258 55.3813 568.258 56.32C568.258 57.856 568.514 59.392 569.026 60.928C569.623 62.464 570.178 64 570.69 65.536C571.202 67.072 571.671 68.6507 572.098 70.272C572.61 71.8933 572.866 73.6427 572.866 75.52C572.866 77.2267 572.61 78.976 572.098 80.768C571.159 84.352 569.41 87.2533 566.85 89.472C569.922 88.448 573.207 86.7413 576.706 84.352C580.205 81.9627 583.49 78.336 586.562 73.472C586.818 73.0453 587.031 72.832 587.202 72.832C587.458 72.7467 587.629 72.704 587.714 72.704ZM551.49 92.416C552.599 92.416 553.751 92.2453 554.946 91.904C556.141 91.5627 557.293 91.008 558.402 90.24C559.938 89.3013 561.218 87.808 562.242 85.76C563.266 83.712 564.077 81.4933 564.674 79.104C565.357 76.6293 565.826 74.2827 566.082 72.064C566.423 69.8453 566.594 68.096 566.594 66.816C566.594 65.024 566.423 63.232 566.082 61.44C565.826 59.648 565.741 57.8987 565.826 56.192C563.949 58.752 561.815 61.6107 559.426 64.768C557.122 67.9253 554.861 71.424 552.642 75.264C553.666 75.8613 554.519 76.5867 555.202 77.44C555.97 78.208 556.482 79.4453 556.738 81.152C556.823 81.8347 556.61 82.6027 556.098 83.456C555.671 84.224 554.818 84.608 553.538 84.608C552.685 84.608 552.258 84.352 552.258 83.84C552.258 83.4133 552.514 83.0293 553.026 82.688C553.879 82.0053 554.306 81.2373 554.306 80.384C554.306 79.872 554.178 79.36 553.922 78.848C553.325 77.7387 552.471 76.928 551.362 76.416C550.338 75.904 549.229 75.648 548.034 75.648C546.327 75.648 544.877 76.16 543.682 77.184C542.658 78.0373 541.933 78.976 541.506 80C541.079 80.9387 540.866 81.92 540.866 82.944C540.866 84.5653 541.293 86.1013 542.146 87.552C542.999 88.9173 544.023 89.9413 545.218 90.624C547.095 91.8187 549.186 92.416 551.49 92.416ZM622.839 72.704C623.095 72.704 623.308 72.832 623.479 73.088C623.65 73.344 623.65 73.728 623.479 74.24C619.468 80.64 614.903 85.2053 609.783 87.936C604.663 90.5813 599.586 92.3733 594.551 93.312C592.503 93.824 590.37 94.08 588.151 94.08C585.25 94.08 582.519 93.5253 579.959 92.416C577.399 91.3067 575.564 89.472 574.455 86.912C573.943 85.632 573.687 84.352 573.687 83.072C573.687 81.1947 574.156 79.5733 575.095 78.208C576.119 76.7573 577.186 75.7333 578.295 75.136C578.978 74.7093 579.703 74.4533 580.471 74.368C581.324 74.1973 582.178 74.112 583.031 74.112C584.14 74.112 585.122 74.24 585.975 74.496C586.231 74.0693 586.999 72.832 588.279 70.784C589.559 68.6507 591.138 66.176 593.015 63.36C594.892 60.4587 596.855 57.728 598.903 55.168C601.122 52.4373 603.255 50.176 605.303 48.384C607.351 46.592 608.844 45.6107 609.783 45.44C610.039 45.3547 610.295 45.312 610.551 45.312C610.807 45.312 611.02 45.312 611.191 45.312C612.13 45.312 612.812 45.5253 613.239 45.952C613.751 46.3787 614.007 46.8907 614.007 47.488C614.007 48.0853 613.666 48.6827 612.983 49.28C612.386 49.8773 611.49 50.176 610.295 50.176C608.93 50.176 607.564 50.56 606.199 51.328C604.834 52.0107 604.023 52.8213 603.767 53.76C603.511 54.528 603.383 55.3813 603.383 56.32C603.383 57.856 603.639 59.392 604.151 60.928C604.748 62.464 605.303 64 605.815 65.536C606.327 67.072 606.796 68.6507 607.223 70.272C607.735 71.8933 607.991 73.6427 607.991 75.52C607.991 77.2267 607.735 78.976 607.223 80.768C606.284 84.352 604.535 87.2533 601.975 89.472C605.047 88.448 608.332 86.7413 611.831 84.352C615.33 81.9627 618.615 78.336 621.687 73.472C621.943 73.0453 622.156 72.832 622.327 72.832C622.583 72.7467 622.754 72.704 622.839 72.704ZM586.615 92.416C587.724 92.416 588.876 92.2453 590.071 91.904C591.266 91.5627 592.418 91.008 593.527 90.24C595.063 89.3013 596.343 87.808 597.367 85.76C598.391 83.712 599.202 81.4933 599.799 79.104C600.482 76.6293 600.951 74.2827 601.207 72.064C601.548 69.8453 601.719 68.096 601.719 66.816C601.719 65.024 601.548 63.232 601.207 61.44C600.951 59.648 600.866 57.8987 600.951 56.192C599.074 58.752 596.94 61.6107 594.551 64.768C592.247 67.9253 589.986 71.424 587.767 75.264C588.791 75.8613 589.644 76.5867 590.327 77.44C591.095 78.208 591.607 79.4453 591.863 81.152C591.948 81.8347 591.735 82.6027 591.223 83.456C590.796 84.224 589.943 84.608 588.663 84.608C587.81 84.608 587.383 84.352 587.383 83.84C587.383 83.4133 587.639 83.0293 588.151 82.688C589.004 82.0053 589.431 81.2373 589.431 80.384C589.431 79.872 589.303 79.36 589.047 78.848C588.45 77.7387 587.596 76.928 586.487 76.416C585.463 75.904 584.354 75.648 583.159 75.648C581.452 75.648 580.002 76.16 578.807 77.184C577.783 78.0373 577.058 78.976 576.631 80C576.204 80.9387 575.991 81.92 575.991 82.944C575.991 84.5653 576.418 86.1013 577.271 87.552C578.124 88.9173 579.148 89.9413 580.343 90.624C582.22 91.8187 584.311 92.416 586.615 92.416ZM625.964 94.592C623.575 94.592 621.74 93.696 620.46 91.904C619.18 90.0267 618.54 87.6373 618.54 84.736C618.54 81.5787 619.393 77.9093 621.1 73.728C622.039 71.424 623.447 69.0773 625.324 66.688C627.201 64.2133 629.377 61.952 631.852 59.904C634.327 57.7707 636.972 56.064 639.788 54.784C642.689 53.4187 645.633 52.736 648.62 52.736C650.924 52.736 652.503 53.3333 653.356 54.528C654.209 55.7227 654.636 57.1733 654.636 58.88C654.636 60.5013 654.38 62.1653 653.868 63.872L661.036 52.992C661.633 52.5653 662.956 52.352 665.004 52.352C666.54 52.352 667.991 52.5227 669.356 52.864C670.807 53.2053 671.233 53.7173 670.636 54.4C669.953 55.2533 668.759 56.576 667.052 58.368C665.431 60.0747 663.639 62.1227 661.676 64.512C659.799 66.9013 658.007 69.4187 656.3 72.064C655.447 73.5147 654.167 75.648 652.46 78.464C650.839 81.28 649.559 83.968 648.62 86.528C648.108 88.064 647.852 89.3013 647.852 90.24C647.852 92.032 648.62 92.928 650.156 92.928C651.009 92.928 652.161 92.6293 653.612 92.032C655.063 91.3493 656.471 90.4533 657.836 89.344C660.567 87.1253 662.956 84.48 665.004 81.408C667.052 78.2507 668.887 75.4773 670.508 73.088C670.593 73.0027 670.679 72.9173 670.764 72.832C670.935 72.7467 671.191 72.704 671.532 72.704C671.873 72.704 672.129 72.8747 672.3 73.216C672.471 73.472 672.385 73.8133 672.044 74.24C669.655 77.824 667.308 81.1947 665.004 84.352C662.7 87.424 660.353 89.8987 657.964 91.776C655.575 93.6533 652.972 94.592 650.156 94.592C647.937 94.592 646.145 93.952 644.78 92.672C643.5 91.3067 642.86 89.472 642.86 87.168C642.86 86.144 642.945 85.0773 643.116 83.968C643.372 82.8587 643.671 81.8347 644.012 80.896C642.647 82.688 640.94 84.6507 638.892 86.784C636.929 88.9173 634.839 90.752 632.62 92.288C630.401 93.824 628.183 94.592 625.964 94.592ZM627.116 92.16C628.823 92.16 630.615 91.4773 632.492 90.112C634.455 88.7467 636.417 86.9973 638.38 84.864C640.343 82.6453 642.135 80.2987 643.756 77.824C645.121 75.776 646.444 73.6 647.724 71.296C649.089 68.992 650.199 66.7307 651.052 64.512C651.991 62.2933 652.46 60.288 652.46 58.496C652.46 55.7653 651.479 54.4 649.516 54.4C648.151 54.4 646.572 54.9973 644.78 56.192C642.988 57.3867 641.153 58.9227 639.276 60.8C637.484 62.6773 635.777 64.7253 634.156 66.944C632.62 69.0773 631.383 71.168 630.444 73.216C630.188 73.728 629.548 74.9653 628.524 76.928C627.585 78.8907 626.647 81.024 625.708 83.328C624.855 85.632 624.428 87.6373 624.428 89.344C624.428 91.2213 625.324 92.16 627.116 92.16Z" fill="#B96A80"/>
</svg>
